<?xml version="1.0" standalone="no"?>
<!DOCTYPE svg PUBLIC "-//W3C//DTD SVG 20010904//EN"
 "http://www.w3.org/TR/2001/REC-SVG-20010904/DTD/svg10.dtd">
<svg version="1.0" xmlns="http://www.w3.org/2000/svg"
 width="512.000000pt" height="512.000000pt" viewBox="0 0 512.000000 512.000000"
 preserveAspectRatio="xMidYMid meet">

<g transform="translate(0.000000,512.000000) scale(0.100000,-0.100000)"
fill="#000000" stroke="none">
<path d="M879 4767 c-241 -123 -481 -280 -497 -325 -17 -50 20 -102 72 -102 7
0 56 29 108 64 150 102 273 174 413 242 72 35 136 72 143 81 17 23 15 64 -4
91 -28 40 -75 30 -235 -51z"/>
<path d="M1545 4705 c-460 -134 -874 -369 -1184 -674 -134 -131 -211 -225
-211 -255 0 -38 37 -76 73 -76 26 0 42 12 101 78 356 394 779 650 1316 798 72
20 133 43 144 54 27 27 25 78 -3 102 -33 26 -68 22 -236 -27z"/>
<path d="M2315 4530 c-296 -25 -620 -94 -869 -186 -263 -96 -555 -261 -761
-427 -113 -91 -297 -285 -377 -398 -323 -452 -394 -999 -193 -1498 48 -121 84
-188 164 -311 l56 -85 5 -535 5 -535 24 -48 c29 -59 85 -102 151 -116 57 -12
98 -6 155 22 22 10 193 106 380 213 187 106 356 195 375 199 25 4 64 -3 135
-25 155 -48 285 -79 442 -106 232 -39 273 -32 273 48 0 56 -20 66 -176 89
-156 22 -339 64 -489 111 -129 41 -207 42 -285 7 -31 -14 -211 -114 -401 -222
-190 -109 -353 -197 -362 -197 -9 0 -29 11 -44 24 l-28 24 -5 539 c-6 610 4
543 -96 691 -97 143 -180 342 -220 532 -25 118 -26 380 -1 503 141 701 801
1270 1707 1470 542 120 1100 95 1637 -74 92 -29 113 -29 146 -1 23 20 22 77
-2 101 -30 30 -300 108 -501 145 -239 44 -618 64 -845 46z"/>
<path d="M3900 4217 c-29 -15 -45 -54 -36 -90 4 -19 28 -37 99 -75 536 -289
885 -719 984 -1210 27 -135 24 -386 -6 -522 -43 -195 -113 -357 -230 -531
-286 -426 -792 -752 -1396 -900 -223 -54 -482 -89 -673 -89 -102 0 -104 -1
-134 -30 -24 -25 -29 -36 -24 -58 4 -15 17 -35 29 -46 20 -17 35 -18 192 -12
271 10 510 48 762 120 184 53 301 99 488 190 910 447 1342 1269 1094 2081 -53
172 -159 375 -276 528 -69 91 -255 279 -353 357 -107 85 -277 196 -391 255
-97 50 -94 50 -129 32z"/>
<path d="M1128 3495 c-186 -35 -388 -148 -388 -216 0 -34 24 -65 55 -73 28 -7
45 0 140 58 33 20 96 49 140 63 69 23 97 26 200 26 102 0 132 -4 200 -26 210
-69 375 -231 446 -437 34 -99 38 -280 10 -385 -35 -126 -84 -208 -181 -305
-138 -138 -285 -200 -475 -200 -185 0 -342 64 -473 192 -195 190 -259 471
-165 717 38 101 39 116 10 145 -71 71 -136 -1 -183 -199 -24 -101 -22 -277 5
-380 73 -278 275 -493 551 -586 79 -27 115 -33 215 -37 178 -7 318 28 467 115
l57 33 47 -35 c104 -79 209 -115 339 -115 132 0 246 41 347 124 l52 43 31 -51
c16 -28 49 -64 73 -80 89 -62 241 -39 306 47 45 59 56 114 56 284 l0 153 88 0
c170 0 295 51 413 169 42 42 86 95 98 118 l21 43 36 -40 c47 -51 152 -121 231
-153 52 -21 153 -47 280 -73 27 -5 40 -46 25 -79 -23 -50 -147 -58 -233 -14
-24 12 -63 38 -86 59 -111 97 -276 74 -350 -50 -28 -45 -33 -64 -33 -115 1
-96 34 -152 141 -238 197 -156 524 -195 743 -86 278 136 377 509 205 764 -81
121 -196 190 -374 225 -155 31 -215 59 -215 101 0 50 111 50 229 -1 97 -42
173 -40 247 6 71 43 107 116 102 205 -4 78 -34 131 -99 178 -54 40 -195 90
-304 109 -204 35 -414 -40 -534 -189 l-45 -56 -75 76 c-81 81 -155 127 -256
158 -51 15 -96 18 -305 18 -234 0 -247 -1 -286 -22 -53 -28 -107 -91 -122
-142 -8 -25 -12 -130 -12 -300 l0 -261 -52 41 c-106 83 -207 119 -338 119
l-87 0 -28 66 c-99 234 -314 414 -570 479 -89 23 -246 27 -337 10z m2064 -146
c130 -28 245 -118 301 -237 30 -63 32 -74 32 -177 0 -100 -2 -115 -28 -167
-44 -89 -116 -161 -204 -205 -76 -37 -76 -37 -233 -43 -216 -7 -200 12 -200
-247 0 -251 -7 -273 -91 -273 -32 0 -66 28 -74 62 -3 13 -4 299 -3 636 l3 614
28 24 c28 24 31 24 222 24 107 0 218 -5 247 -11z m981 -3 c93 -18 222 -71 242
-99 23 -33 19 -80 -9 -106 -31 -29 -74 -25 -166 14 -76 33 -195 45 -255 25
-44 -14 -100 -62 -121 -101 -7 -15 -14 -49 -14 -74 0 -128 96 -202 324 -250
136 -28 200 -59 261 -128 59 -65 87 -141 88 -238 1 -114 -29 -186 -112 -270
-87 -87 -146 -111 -292 -117 -168 -7 -303 39 -414 140 -47 43 -55 55 -55 86 0
47 32 82 76 82 24 0 46 -11 81 -42 128 -111 338 -140 454 -63 90 59 124 176
79 270 -34 70 -70 92 -201 119 -181 38 -270 79 -352 161 -227 226 -60 594 275
604 20 1 70 -5 111 -13z m-1858 -591 c79 -38 148 -109 188 -193 29 -61 32 -75
32 -167 0 -93 -2 -105 -33 -167 -68 -138 -188 -218 -339 -226 -60 -3 -97 0
-135 13 -57 18 -148 71 -148 86 0 7 61 88 96 128 2 2 12 -3 21 -11 56 -49 134
-65 208 -43 101 29 166 114 167 217 1 127 -87 222 -218 235 l-54 6 0 80 0 80
78 -5 c57 -4 92 -12 137 -33z m-121 -297 c43 -39 36 -107 -14 -133 -37 -19
-74 -11 -100 22 -28 36 -25 70 9 104 35 35 71 37 105 7z"/>
<path d="M2911 3176 c-45 -25 -50 -49 -51 -243 l0 -183 29 -32 29 -33 129 0
c123 0 130 1 182 30 193 107 183 363 -19 454 -37 17 -66 21 -160 20 -77 0
-123 -4 -139 -13z m268 -162 c59 -49 48 -134 -23 -168 -19 -9 -59 -16 -90 -16
l-56 0 0 105 0 105 69 0 c60 0 74 -4 100 -26z"/>
<path d="M1141 3174 c-177 -48 -324 -198 -366 -375 -42 -180 6 -351 136 -482
289 -290 771 -150 865 250 62 262 -108 539 -371 608 -73 19 -192 18 -264 -1z
m292 -169 c32 -16 78 -50 103 -77 194 -208 97 -536 -180 -605 -163 -40 -333
41 -408 195 -31 62 -33 74 -32 162 1 114 20 165 90 240 87 93 156 121 284 117
69 -3 96 -9 143 -32z"/>
<path d="M1762 1651 c-31 -11 -71 -35 -94 -57 -182 -175 -64 -474 188 -474
250 0 368 307 182 474 -81 73 -174 92 -276 57z m155 -151 c74 -45 83 -139 19
-197 -101 -92 -255 25 -193 147 17 34 74 70 111 70 17 0 45 -9 63 -20z"/>
<path d="M2477 1656 c-100 -37 -167 -112 -187 -212 -35 -167 96 -324 270 -324
238 1 361 274 205 458 -61 73 -201 111 -288 78z m138 -152 c57 -27 82 -84 64
-146 -32 -118 -206 -118 -238 0 -18 62 7 119 62 146 41 20 71 20 112 0z"/>
<path d="M3179 1654 c-27 -8 -68 -33 -97 -59 -96 -87 -118 -220 -56 -336 92
-169 340 -188 456 -34 45 60 62 119 55 193 -6 74 -33 127 -90 179 -72 67 -170
88 -268 57z m152 -157 c60 -40 77 -114 40 -171 -26 -39 -57 -55 -109 -56 -34
0 -49 6 -78 33 -112 102 21 279 147 194z"/>
<path d="M4859 1448 c-9 -7 -46 -48 -83 -91 -129 -146 -342 -317 -548 -438
-322 -191 -672 -311 -1078 -370 -86 -13 -152 -27 -162 -36 -38 -33 -30 -88 16
-118 22 -14 37 -14 167 5 656 95 1221 364 1640 780 124 123 169 179 169 211 0
9 -9 28 -21 43 -23 29 -73 36 -100 14z"/>
<path d="M4591 805 c-203 -145 -385 -247 -626 -350 -60 -25 -114 -54 -122 -63
-33 -44 2 -112 57 -112 98 0 525 220 774 398 112 81 146 114 146 146 0 33 -41
76 -73 76 -13 0 -79 -40 -156 -95z"/>
</g>
</svg>
